<?xml version="1.0" encoding="UTF-8" standalone="no"?>
<svg xmlns="http://www.w3.org/2000/svg" version="1.2" baseProfile="tiny" viewBox="0.00 0.00 500.00 500.00">
<path fill="#000000" d="
  M 411.80 173.47
  Q 420.42 176.32 429.59 179.36
  Q 433.15 180.53 434.48 181.94
  C 438.67 186.36 434.40 194.66 428.87 194.80
  Q 426.65 194.86 420.38 192.79
  Q 407.81 188.63 395.23 184.53
  C 393.05 183.82 389.60 186.34 387.61 187.63
  Q 371.38 198.12 355.50 208.41
  A 2.63 2.62 -20.3 0 0 354.33 210.94
  Q 355.67 221.48 357.13 231.98
  Q 362.55 270.98 367.73 310.01
  C 369.70 324.93 362.62 339.48 349.55 347.07
  C 343.95 350.32 336.86 351.43 330.50 351.59
  Q 316.87 351.95 303.72 351.36
  A 1.12 1.11 82.6 0 0 302.61 352.81
  C 308.85 372.94 315.30 392.86 321.40 412.84
  C 321.95 414.64 322.11 415.42 324.15 415.85
  Q 341.85 419.56 355.00 422.72
  C 366.34 425.45 363.10 440.26 352.27 437.86
  Q 331.96 433.34 311.74 429.24
  A 2.82 2.81 -3.0 0 1 309.61 427.33
  L 286.04 352.91
  A 1.83 1.82 -8.7 0 0 284.30 351.64
  Q 243.10 351.69 202.25 351.76
  Q 197.64 351.76 193.28 351.38
  A 1.77 1.77 0.0 0 0 191.44 352.61
  Q 180.08 388.58 168.60 424.66
  Q 167.79 427.22 166.74 428.74
  Q 166.43 429.19 165.89 429.30
  Q 147.10 433.11 128.41 437.24
  Q 123.10 438.41 121.08 438.00
  C 115.27 436.84 113.06 428.29 118.19 424.68
  C 120.64 422.97 123.00 422.62 125.86 421.95
  Q 139.89 418.67 153.77 415.70
  A 2.20 2.18 2.5 0 0 155.40 414.22
  L 174.66 353.57
  Q 175.30 351.53 173.17 351.58
  Q 160.48 351.85 146.75 351.52
  C 131.82 351.17 119.25 344.54 112.86 330.65
  C 108.64 321.46 108.94 314.41 110.52 303.44
  Q 113.22 284.62 115.64 265.77
  Q 119.08 238.98 122.98 212.25
  Q 123.47 208.91 120.54 207.44
  C 116.59 205.47 111.78 201.73 108.01 199.35
  Q 96.82 192.30 85.77 185.02
  Q 84.26 184.02 81.31 184.98
  Q 67.75 189.34 54.16 193.65
  Q 49.72 195.06 47.58 194.70
  C 42.35 193.82 39.65 186.38 42.80 182.30
  Q 44.23 180.45 48.56 178.95
  Q 57.36 175.90 66.02 173.21
  A 0.58 0.57 -36.9 0 0 66.17 172.18
  Q 58.67 167.32 51.34 162.67
  C 41.53 156.45 49.63 142.78 60.33 149.68
  C 65.41 152.96 70.68 156.08 75.45 159.82
  A 1.20 1.19 -71.6 0 0 77.38 158.85
  C 77.24 153.68 75.89 141.50 79.58 137.73
  C 83.30 133.93 90.29 135.11 92.43 140.11
  Q 93.22 141.95 93.25 146.01
  Q 93.35 158.30 93.23 170.59
  A 0.76 0.74 17.3 0 0 93.58 171.24
  L 124.24 190.73
  A 1.47 1.46 13.7 0 0 126.49 189.37
  C 126.27 186.89 127.21 183.85 127.48 181.86
  Q 129.20 169.03 131.23 156.25
  Q 132.65 147.32 138.15 140.19
  Q 149.70 125.26 168.48 125.28
  A 1.32 1.32 0.0 0 0 169.78 124.20
  C 170.64 119.46 171.41 114.40 172.86 110.05
  C 182.28 81.91 207.57 60.82 238.13 60.46
  C 255.96 60.24 273.26 67.05 285.89 79.85
  C 288.47 82.46 291.07 85.00 293.23 87.80
  Q 305.56 103.77 308.06 123.91
  A 1.68 1.68 0.0 0 0 309.79 125.38
  C 328.34 124.69 343.99 139.03 346.69 156.77
  Q 349.29 173.85 350.97 190.45
  A 1.25 1.25 0.0 0 0 352.88 191.38
  L 383.16 172.23
  Q 384.26 171.53 384.25 170.22
  Q 384.09 156.76 384.31 143.26
  C 384.43 135.61 395.07 133.66 398.70 139.53
  C 401.33 143.78 400.23 153.92 400.21 159.49
  Q 400.20 161.47 401.82 160.33
  C 406.40 157.11 411.00 154.10 415.69 151.05
  Q 420.12 148.18 422.29 147.86
  C 428.45 146.94 432.53 154.30 429.79 159.80
  Q 429.00 161.39 424.27 164.34
  Q 418.29 168.07 411.65 172.27
  Q 410.45 173.03 411.80 173.47
  Z
  M 185.01 131.74
  C 184.70 141.34 179.01 141.30 171.22 141.17
  C 161.54 141.01 153.88 143.22 149.14 152.09
  Q 147.22 155.67 146.14 163.29
  Q 136.01 234.95 125.92 306.63
  Q 124.86 314.20 125.28 317.41
  C 126.68 328.02 135.81 335.90 146.50 335.90
  Q 238.75 335.85 331.00 335.81
  C 344.29 335.81 354.61 324.99 352.68 311.50
  Q 342.14 237.48 331.85 163.42
  C 330.54 154.02 327.64 146.24 318.42 142.70
  Q 314.35 141.14 303.89 141.13
  Q 255.70 141.09 207.50 141.13
  C 203.45 141.13 199.92 139.92 198.83 135.64
  C 197.22 129.33 201.37 125.10 207.63 125.08
  Q 249.44 124.93 290.73 125.11
  A 1.40 1.40 0.0 0 0 292.11 123.45
  C 284.98 85.71 245.05 62.92 210.62 84.85
  C 203.08 89.66 196.86 96.77 192.55 104.26
  Q 185.51 116.52 185.01 131.74
  Z"
/>
<circle fill="#000000" cx="287.69" cy="205.14" r="21.01"/>
<ellipse fill="#000000" cx="0.00" cy="0.00" transform="translate(184.70,207.87) rotate(86.6)" rx="14.40" ry="14.07"/>
<path fill="#000000" d="
  M 192.06 246.88
  C 192.70 254.13 195.90 261.48 201.73 266.04
  C 222.42 282.27 253.52 282.64 274.63 266.85
  C 282.15 261.22 284.62 253.93 285.75 244.97
  C 286.61 238.22 297.24 237.58 300.05 243.07
  C 302.79 248.40 299.22 260.08 296.49 264.73
  C 275.36 300.74 217.71 303.14 189.03 274.99
  Q 177.89 264.06 176.39 248.78
  C 175.93 244.11 178.31 240.03 183.21 239.44
  C 188.35 238.82 191.61 241.70 192.06 246.88
  Z"
/>
</svg>
